<svg xmlns="http://www.w3.org/2000/svg" version="1.1" xmlns:xlink="http://www.w3.org/1999/xlink" xmlns:svgjs="http://svgjs.com/svgjs" width="341.55" height="247.73"><svg id="SvgjsSvg1001" data-name="Layer 1" xmlns="http://www.w3.org/2000/svg" xmlns:xlink="http://www.w3.org/1999/xlink" viewBox="0 0 341.55 247.73"><defs><style>.cls-1{fill:url(#linear-gradient);}</style><linearGradient id="SvgjsLinearGradient1000" x1="79.22" y1="259.1" x2="420.78" y2="259.1" gradientUnits="userSpaceOnUse"><stop offset="0.01" stop-color="#e31134"></stop><stop offset="0.45" stop-color="#e11334"></stop><stop offset="0.7" stop-color="#d81a36"></stop><stop offset="0.91" stop-color="#ca2738"></stop><stop offset="1" stop-color="#c12f3a"></stop></linearGradient></defs><title>playbtn_red</title><path class="cls-1" d="M189.61,307.21,79.22,284.29v-.43h149.6c0,2.89-.06,5.81,0,8.73.28,11-.38,22,1.14,32.83,2.08,14.72,18.15,22.84,31.55,16.18,12.29-6.11,24-13.4,35.92-20.26,23-13.25,45.92-26.65,68.95-39.85,13.38-7.66,18.3-18.4,13.76-30.9-2.64-7.27-8.83-11-15-14.71-10.66-6.41-21.33-12.82-32.13-19-22.75-13-45.52-26-68.43-38.78-17.31-9.64-35.69,1.42-35.79,21.33-.06,12,0,23.94,0,35.94H160.34l-.15-1.33,14.65-2.56c3.76-.65,7.51-1.62,11.3-1.84s4.24-2.07,4.19-5.19c-.14-8.5,0-17,0-25.5,0-28,15.53-50.53,41.85-60,16.46-5.91,32.85-4.83,48.12,3.59,22.26,12.28,44.11,25.28,66.13,38,14.4,8.3,28.86,16.5,43.15,25,17.16,10.18,27.15,25.12,30.46,45,4.17,25-10,50.81-29.78,62.21-35.52,20.46-70.9,41.17-106.42,61.62-36.75,21.15-82.47,1.49-92-39.84C189.85,325.88,190.32,316.7,189.61,307.21Z" transform="translate(-79.22 -135.23)"></path></svg><style>@media (prefers-color-scheme: light) { :root { filter: none; } }
</style></svg>